{
	"asset": {
		"generator": "VISUALIZEGLTF",
		"version" : "2.0"
	},
	"extensionsUsed": [ "KHR_lights_punctual","KHR_materials_pbrSpecularGlossiness","KHR_texture_transform" ],
	"scenes": [
		{
			"name": "Default",
			"nodes": [
				0]
		}
	],
	"nodes": [
		{
			"children": [
				1, 13, 14, 15, 16, 17, 18, 19, 20
			]
			,"name": ""		}
,
		{
			"children": [
				2
			]
			,"matrix": [
				1,					0,					0,					0,
				0,					1.311342E-07,					-1,					0,
				0,					1,					1.311342E-07,					0,
				-2.123415E-07,					0.003400005,					0.0004192069,					1
			]
			,"name": "IpCamera"		}
,
		{
			"children": [
				3, 5, 6, 8, 9, 10, 11
			]
			,"name": "Root"		}
,
		{
			"children": [
				4
			]
			,"mesh": 0
			,"name": "white"		}
,
		{
			"mesh": 1
			,"name": "white_clonedChild"		}
,
		{
			"mesh": 2
			,"name": "light grey low gloss plastic"		}
,
		{
			"children": [
				7
			]
			,"mesh": 3
			,"name": "red spray paint"		}
,
		{
			"mesh": 4
			,"name": "red spray paint_clonedChild"		}
,
		{
			"mesh": 5
			,"name": "white high gloss plastic"		}
,
		{
			"mesh": 6
			,"name": "white high gloss plastic-2"		}
,
		{
			"mesh": 7
			,"name": "textured rubber"		}
,
		{
			"children": [
				12
			]
			,"mesh": 8
			,"name": "black spray paint"		}
,
		{
			"mesh": 9
			,"name": "black spray paint_clonedChild"		}
,
		{
			"matrix": [
				0.9732312,					-0.203224,					0.1073353,					0,
				0.2004381,					0.9790354,					0.03625005,					0,
				-0.112452,					-0.0137656,					0.9935618,					0,
				-0.2541068,					0.0604131,					2.409908,					1
			]
			,"camera": 0
			,"name": "SOLIDWORKS Viewport"		}
,
		{
			"matrix": [
				0.7071068,					0,					-0.7071068,					0,
				-0.1622216,					0.9733286,					-0.1622216,					0,
				0.6882472,					0.2294159,					0.6882472,					0,
				4.445094,					1.981699,					4.445094,					1
			]
			,"camera": 1
			,"name": "Default Camera"		}
,
		{
			"matrix": [
				0.8884332,					0.4582403,					0.02650112,					0,
				-0.1972686,					0.3290562,					0.9234756,					0,
				0.4144534,					-0.8256742,					0.3827408,					0,
				0.2483501,					-0.451692,					0.2866471,					1
			]
			,"camera": 2
			,"name": "Normale"		}
,
		{
			"matrix": [
				0,					0,					-0.9999999,					0,
				-0.7071068,					0.7071068,					0,					0,
				0.7071068,					0.7071068,					0,					0,
				7.071068,					7.071068,					0,					1
			]
			,"extensions" : {
				"KHR_lights_punctual" : {
					"light" : 0
				}
			}
			,"name": "Direzionale1"		}
,
		{
			"matrix": [
				-0.9019192,					0,					0.4319047,					0,
				0.2645487,					0.790458,					0.5524403,					0,
				-0.3414025,					0.6125164,					-0.7129292,					0,
				-3.414026,					6.125165,					-7.12929,					1
			]
			,"extensions" : {
				"KHR_lights_punctual" : {
					"light" : 1
				}
			}
			,"name": "Direzionale2"		}
,
		{
			"matrix": [
				-0.1920117,					0,					0.9813927,					0,
				0.3346118,					0.9400793,					0.06546756,					0,
				-0.9225869,					0.3409561,					-0.1805062,					0,
				-9.225868,					3.40956,					-1.805061,					1
			]
			,"extensions" : {
				"KHR_lights_punctual" : {
					"light" : 2
				}
			}
			,"name": "Direzionale3"		}
,
		{
			"name": "3 Point Faded"		}
,
		{
			"name": "3 Point Faded Backplate"		}
	],
	"cameras": [
		{
			"type": "perspective",
			"perspective" : {
				"aspectRatio": 1.25,
				"yfov" : 0.3215369,
				"zfar" : 100,
				"znear" : 0.01
			}
		}
,
		{
			"type": "perspective",
			"perspective" : {
				"aspectRatio": 1.777778,
				"yfov" : 0.2617994,
				"zfar" : 100,
				"znear" : 0.01
			}
		}
,
		{
			"type": "perspective",
			"perspective" : {
				"aspectRatio": 1.25,
				"yfov" : 0.3215369,
				"zfar" : 100,
				"znear" : 0.01
			}
		}
	],
	"extensions": {
		"KHR_lights_punctual" : {
			"lights": [
		{
			"name": "Direzionale1[1]",
			"color": [
					0.5773503, 0.5773503, 0.5773503
				],
			"intensity": 0.5773503,
			"type": "directional"
		}
,
		{
			"name": "Direzionale2[1]",
			"color": [
					0.5773503, 0.5773503, 0.5773503
				],
			"intensity": 0.5773503,
			"type": "directional"
		}
,
		{
			"name": "Direzionale3[1]",
			"color": [
					0.5773503, 0.5773503, 0.5773503
				],
			"intensity": 0.5773503,
			"type": "directional"
		}

			]
		}
	},
	"meshes" : [
		{
			"primitives" : [
				{
					"attributes" : {
					"POSITION" : 1
					,"NORMAL" : 2
					,"TEXCOORD_0" : 3
					},
					"indices" : 0,
					"mode": 4,
					"material" : 0
				}
			]
		},
		{
			"primitives" : [
				{
					"attributes" : {
					"POSITION" : 5
					,"NORMAL" : 6
					,"TEXCOORD_0" : 7
					},
					"indices" : 4,
					"mode": 4,
					"material" : 1
				}
			]
		},
		{
			"primitives" : [
				{
					"attributes" : {
					"POSITION" : 9
					,"NORMAL" : 10
					,"TEXCOORD_0" : 11
					},
					"indices" : 8,
					"mode": 4,
					"material" : 2
				}
			]
		},
		{
			"primitives" : [
				{
					"attributes" : {
					"POSITION" : 13
					,"NORMAL" : 14
					,"TEXCOORD_0" : 15
					},
					"indices" : 12,
					"mode": 4,
					"material" : 3
				}
			]
		},
		{
			"primitives" : [
				{
					"attributes" : {
					"POSITION" : 17
					,"NORMAL" : 18
					,"TEXCOORD_0" : 19
					},
					"indices" : 16,
					"mode": 4,
					"material" : 4
				}
			]
		},
		{
			"primitives" : [
				{
					"attributes" : {
					"POSITION" : 21
					,"NORMAL" : 22
					,"TEXCOORD_0" : 23
					},
					"indices" : 20,
					"mode": 4,
					"material" : 5
				}
			]
		},
		{
			"primitives" : [
				{
					"attributes" : {
					"POSITION" : 25
					,"NORMAL" : 26
					,"TEXCOORD_0" : 27
					},
					"indices" : 24,
					"mode": 4,
					"material" : 6
				}
			]
		},
		{
			"primitives" : [
				{
					"attributes" : {
					"POSITION" : 29
					,"NORMAL" : 30
					,"TEXCOORD_0" : 31
					},
					"indices" : 28,
					"mode": 4,
					"material" : 7
				}
			]
		},
		{
			"primitives" : [
				{
					"attributes" : {
					"POSITION" : 33
					,"NORMAL" : 34
					,"TEXCOORD_0" : 35
					},
					"indices" : 32,
					"mode": 4,
					"material" : 8
				}
			]
		},
		{
			"primitives" : [
				{
					"attributes" : {
					"POSITION" : 37
					,"NORMAL" : 38
					,"TEXCOORD_0" : 39
					},
					"indices" : 36,
					"mode": 4,
					"material" : 9
				}
			]
		}
	],
	"accessors" : [
			{
				"bufferView": 3
				,"byteOffset" : 0
				,"componentType" : 5125
				,"count" : 13791
				,"type" : "SCALAR"
			},
			{
				"bufferView": 0
				,"byteOffset" : 0
				,"componentType" : 5126
				,"count" : 5783
				,"type" : "VEC3"
								,"min": [-0.0424319096,-0.0423983335,-8.67361738E-19]
								,"max": [0.0424323343,0.0414999984,0.117998898]
			},
			{
				"bufferView": 1
				,"byteOffset" : 0
				,"componentType" : 5126
				,"count" : 5783
				,"type" : "VEC3"
			},
			{
				"bufferView": 2
				,"byteOffset" : 0
				,"componentType" : 5126
				,"count" : 5783
				,"type" : "VEC2"
			},
			{
				"bufferView": 7
				,"byteOffset" : 0
				,"componentType" : 5125
				,"count" : 13791
				,"type" : "SCALAR"
			},
			{
				"bufferView": 4
				,"byteOffset" : 0
				,"componentType" : 5126
				,"count" : 5783
				,"type" : "VEC3"
								,"min": [-0.0425155982,-0.0424819551,-8.38983397E-05]
								,"max": [0.0425160229,0.0414999984,0.118077263]
			},
			{
				"bufferView": 5
				,"byteOffset" : 0
				,"componentType" : 5126
				,"count" : 5783
				,"type" : "VEC3"
			},
			{
				"bufferView": 6
				,"byteOffset" : 0
				,"componentType" : 5126
				,"count" : 5783
				,"type" : "VEC2"
			},
			{
				"bufferView": 11
				,"byteOffset" : 0
				,"componentType" : 5125
				,"count" : 10560
				,"type" : "SCALAR"
			},
			{
				"bufferView": 8
				,"byteOffset" : 0
				,"componentType" : 5126
				,"count" : 5254
				,"type" : "VEC3"
								,"min": [-0.0394648165,-0.0320000015,-0.00340000005]
								,"max": [0.0420547612,0.0432367623,0.111519672]
			},
			{
				"bufferView": 9
				,"byteOffset" : 0
				,"componentType" : 5126
				,"count" : 5254
				,"type" : "VEC3"
			},
			{
				"bufferView": 10
				,"byteOffset" : 0
				,"componentType" : 5126
				,"count" : 5254
				,"type" : "VEC2"
			},
			{
				"bufferView": 15
				,"byteOffset" : 0
				,"componentType" : 5125
				,"count" : 3408
				,"type" : "SCALAR"
			},
			{
				"bufferView": 12
				,"byteOffset" : 0
				,"componentType" : 5126
				,"count" : 1590
				,"type" : "VEC3"
								,"min": [-0.0130000003,-0.0312249903,0.0569954067]
								,"max": [0.0130000003,0.0273847766,0.115999997]
			},
			{
				"bufferView": 13
				,"byteOffset" : 0
				,"componentType" : 5126
				,"count" : 1590
				,"type" : "VEC3"
			},
			{
				"bufferView": 14
				,"byteOffset" : 0
				,"componentType" : 5126
				,"count" : 1590
				,"type" : "VEC2"
			},
			{
				"bufferView": 19
				,"byteOffset" : 0
				,"componentType" : 5125
				,"count" : 3408
				,"type" : "SCALAR"
			},
			{
				"bufferView": 16
				,"byteOffset" : 0
				,"componentType" : 5126
				,"count" : 1590
				,"type" : "VEC3"
								,"min": [-0.0130105941,-0.0312503688,0.0569734648]
								,"max": [0.0130105941,0.0274070259,0.116025999]
			},
			{
				"bufferView": 17
				,"byteOffset" : 0
				,"componentType" : 5126
				,"count" : 1590
				,"type" : "VEC3"
			},
			{
				"bufferView": 18
				,"byteOffset" : 0
				,"componentType" : 5126
				,"count" : 1590
				,"type" : "VEC2"
			},
			{
				"bufferView": 23
				,"byteOffset" : 0
				,"componentType" : 5125
				,"count" : 144
				,"type" : "SCALAR"
			},
			{
				"bufferView": 20
				,"byteOffset" : 0
				,"componentType" : 5126
				,"count" : 80
				,"type" : "VEC3"
								,"min": [-0.00600000005,-0.0315000005,0.0705000013]
								,"max": [0.00600000005,-0.0264999997,0.0900000036]
			},
			{
				"bufferView": 21
				,"byteOffset" : 0
				,"componentType" : 5126
				,"count" : 80
				,"type" : "VEC3"
			},
			{
				"bufferView": 22
				,"byteOffset" : 0
				,"componentType" : 5126
				,"count" : 80
				,"type" : "VEC2"
			},
			{
				"bufferView": 27
				,"byteOffset" : 0
				,"componentType" : 5125
				,"count" : 69
				,"type" : "SCALAR"
			},
			{
				"bufferView": 24
				,"byteOffset" : 0
				,"componentType" : 5126
				,"count" : 39
				,"type" : "VEC3"
								,"min": [-0.00397522934,-0.0264999997,0.0940334424]
								,"max": [0.00397522934,-0.0264999997,0.101937391]
			},
			{
				"bufferView": 25
				,"byteOffset" : 0
				,"componentType" : 5126
				,"count" : 39
				,"type" : "VEC3"
			},
			{
				"bufferView": 26
				,"byteOffset" : 0
				,"componentType" : 5126
				,"count" : 39
				,"type" : "VEC2"
			},
			{
				"bufferView": 31
				,"byteOffset" : 0
				,"componentType" : 5125
				,"count" : 864
				,"type" : "SCALAR"
			},
			{
				"bufferView": 28
				,"byteOffset" : 0
				,"componentType" : 5126
				,"count" : 360
				,"type" : "VEC3"
								,"min": [-0.0291499998,-0.0168999992,-0.00340000005]
								,"max": [0.0291499998,0.0414000005,0]
			},
			{
				"bufferView": 29
				,"byteOffset" : 0
				,"componentType" : 5126
				,"count" : 360
				,"type" : "VEC3"
			},
			{
				"bufferView": 30
				,"byteOffset" : 0
				,"componentType" : 5126
				,"count" : 360
				,"type" : "VEC2"
			},
			{
				"bufferView": 35
				,"byteOffset" : 0
				,"componentType" : 5125
				,"count" : 1464
				,"type" : "SCALAR"
			},
			{
				"bufferView": 32
				,"byteOffset" : 0
				,"componentType" : 5126
				,"count" : 644
				,"type" : "VEC3"
								,"min": [-0.036310941,-0.01859756,0.0653000027]
								,"max": [0.036310941,0.01859756,0.102700002]
			},
			{
				"bufferView": 33
				,"byteOffset" : 0
				,"componentType" : 5126
				,"count" : 644
				,"type" : "VEC3"
			},
			{
				"bufferView": 34
				,"byteOffset" : 0
				,"componentType" : 5126
				,"count" : 644
				,"type" : "VEC2"
			},
			{
				"bufferView": 39
				,"byteOffset" : 0
				,"componentType" : 5125
				,"count" : 1464
				,"type" : "SCALAR"
			},
			{
				"bufferView": 36
				,"byteOffset" : 0
				,"componentType" : 5126
				,"count" : 644
				,"type" : "VEC3"
								,"min": [-0.0363480449,-0.0186165683,0.065280892]
								,"max": [0.0363480449,0.0186165683,0.102719113]
			},
			{
				"bufferView": 37
				,"byteOffset" : 0
				,"componentType" : 5126
				,"count" : 644
				,"type" : "VEC3"
			},
			{
				"bufferView": 38
				,"byteOffset" : 0
				,"componentType" : 5126
				,"count" : 644
				,"type" : "VEC2"
			}
	],
	"materials": [
			{
				"name": "white",
				"emissiveFactor": [
					0, 0, 0
				]
				,"pbrMetallicRoughness": {
					"baseColorFactor": [
						1, 1, 1, 1
					]
					,"metallicFactor": 0
					,"roughnessFactor": 1
				}
				,"alphaMode": "OPAQUE"
				,"doubleSided": true
			},
			{
				"name": "white_Clearcoat",
				"emissiveFactor": [
					0, 0, 0
				]
				,"pbrMetallicRoughness": {
					"baseColorFactor": [
						0, 0, 0, 1
					]
					,"metallicFactor": 0
					,"roughnessFactor": 1
				}
				,"alphaMode": "BLEND"
				,"doubleSided": false
						,"extensions": {
							"KHR_materials_pbrSpecularGlossiness": {
								"diffuseFactor": [1,1, 1, 0.2777778],
								"specularFactor": [0.2744104,0.2744104, 0.2744104],
								"glossinessFactor": 0.9866347
							}
						}
			},
			{
				"name": "light grey low gloss plastic",
				"emissiveFactor": [
					0, 0, 0
				]
				,"pbrMetallicRoughness": {
					"baseColorFactor": [
						1, 1, 1, 1
					]
					,"metallicFactor": 0
					,"roughnessFactor": 0.6440087
				}
				,"alphaMode": "OPAQUE"
				,"doubleSided": true
			},
			{
				"name": "red spray paint",
				"emissiveFactor": [
					0, 0, 0
				]
				,"pbrMetallicRoughness": {
					"baseColorFactor": [
						0.5295233, 0.000175124, 0.000175124, 1
					]
					,"metallicFactor": 0
					,"roughnessFactor": 1
				}
				,"alphaMode": "OPAQUE"
				,"doubleSided": true
			},
			{
				"name": "red spray paint_Clearcoat",
				"emissiveFactor": [
					0, 0, 0
				]
				,"pbrMetallicRoughness": {
					"baseColorFactor": [
						0, 0, 0, 1
					]
					,"metallicFactor": 0
					,"roughnessFactor": 1
				}
				,"alphaMode": "BLEND"
				,"doubleSided": false
						,"extensions": {
							"KHR_materials_pbrSpecularGlossiness": {
								"diffuseFactor": [1,1, 1, 0.2777778],
								"specularFactor": [0.2744104,0.2744104, 0.2744104],
								"glossinessFactor": 0.5290972
							}
						}
			},
			{
				"name": "white high gloss plastic",
				"emissiveFactor": [
					0, 0, 0
				]
				,"pbrMetallicRoughness": {
					"baseColorFactor": [
						0.007955481, 0.007955481, 0.007955481, 1
					]
					,"metallicFactor": 1
					,"roughnessFactor": 0.01336535
				}
				,"alphaMode": "OPAQUE"
				,"doubleSided": true
			},
			{
				"name": "white high gloss plastic-2",
				"emissiveFactor": [
					0, 0, 0
				]
				,"pbrMetallicRoughness": {
					"baseColorFactor": [
						0.5505892, 0.5505892, 0.5505892, 1
					]
					,"metallicFactor": 0.09712428
					,"roughnessFactor": 0.01336535
				}
				,"alphaMode": "OPAQUE"
				,"doubleSided": true
			},
			{
				"name": "textured rubber",
					"normalTexture": {
						"index": 1,
						"scale": 3
						,"extensions": {
							"KHR_texture_transform": {
								"offset": [-0.1535163,-1.153516],
								"rotation": 0,
								"scale": [1.307033, 1.307033]
							}
						}
					}
				,"emissiveFactor": [
					0, 0, 0
				]
				,"pbrMetallicRoughness": {
					"baseColorTexture": {
						"index": 0
						,"extensions": {
							"KHR_texture_transform": {
								"offset": [-0.1535163,-1.153516],
								"rotation": 0,
								"scale": [1.307033, 1.307033]
							}
						}
					}
					,"baseColorFactor": [
						0.2941177, 0.2941177, 0.2941177, 1
					]
					,"metallicFactor": 0
					,"roughnessFactor": 0.6876298
				}
				,"alphaMode": "OPAQUE"
				,"doubleSided": true
			},
			{
				"name": "black spray paint",
				"emissiveFactor": [
					0, 0, 0
				]
				,"pbrMetallicRoughness": {
					"baseColorFactor": [
						0.001963416, 0.001963416, 0.001963416, 1
					]
					,"metallicFactor": 0
					,"roughnessFactor": 1
				}
				,"alphaMode": "OPAQUE"
				,"doubleSided": true
			},
			{
				"name": "black spray paint_Clearcoat",
				"emissiveFactor": [
					0, 0, 0
				]
				,"pbrMetallicRoughness": {
					"baseColorFactor": [
						0, 0, 0, 1
					]
					,"metallicFactor": 0
					,"roughnessFactor": 1
				}
				,"alphaMode": "BLEND"
				,"doubleSided": false
						,"extensions": {
							"KHR_materials_pbrSpecularGlossiness": {
								"diffuseFactor": [1,1, 1, 0.2777778],
								"specularFactor": [0.2744104,0.2744104, 0.2744104],
								"glossinessFactor": 0.4558982
							}
						}
			}
	],
	"textures": [
			{
				"sampler": 0,
				"source": 0,
				"name": "camera_Texture_0002.png"
			},
			{
				"sampler": 1,
				"source": 1,
				"name": "camera_Texture_0004.png"
			}
	],
	"images": [
			{
				"uri": "camera_Texture_0002.png"
			},
			{
				"uri": "camera_Texture_0004.png"
			}
	],
	"samplers": [
			{
				"magFilter": 9729,
				"minFilter" : 9729,
				"wrapS" : 10497,
				"wrapT" : 10497,
				"name": "DefaultSampler"
			},
			{
				"magFilter": 9729,
				"minFilter" : 9729,
				"wrapS" : 10497,
				"wrapT" : 10497,
				"name": "DefaultSampler"
			}
	],
	"bufferViews" : [
			{
				"buffer": 0
				,"byteOffset" : 0
				,"byteLength" : 69396
				,"byteStride" : 12
				,"target" : 34962
			},
			{
				"buffer": 0
				,"byteOffset" : 69396
				,"byteLength" : 69396
				,"byteStride" : 12
				,"target" : 34962
			},
			{
				"buffer": 0
				,"byteOffset" : 138792
				,"byteLength" : 46264
				,"byteStride" : 8
				,"target" : 34962
			},
			{
				"buffer": 0
				,"byteOffset" : 185056
				,"byteLength" : 55164
				,"target" : 34963
			},
			{
				"buffer": 1
				,"byteOffset" : 0
				,"byteLength" : 69396
				,"byteStride" : 12
				,"target" : 34962
			},
			{
				"buffer": 1
				,"byteOffset" : 69396
				,"byteLength" : 69396
				,"byteStride" : 12
				,"target" : 34962
			},
			{
				"buffer": 1
				,"byteOffset" : 138792
				,"byteLength" : 46264
				,"byteStride" : 8
				,"target" : 34962
			},
			{
				"buffer": 1
				,"byteOffset" : 185056
				,"byteLength" : 55164
				,"target" : 34963
			},
			{
				"buffer": 2
				,"byteOffset" : 0
				,"byteLength" : 63048
				,"byteStride" : 12
				,"target" : 34962
			},
			{
				"buffer": 2
				,"byteOffset" : 63048
				,"byteLength" : 63048
				,"byteStride" : 12
				,"target" : 34962
			},
			{
				"buffer": 2
				,"byteOffset" : 126096
				,"byteLength" : 42032
				,"byteStride" : 8
				,"target" : 34962
			},
			{
				"buffer": 2
				,"byteOffset" : 168128
				,"byteLength" : 42240
				,"target" : 34963
			},
			{
				"buffer": 3
				,"byteOffset" : 0
				,"byteLength" : 19080
				,"byteStride" : 12
				,"target" : 34962
			},
			{
				"buffer": 3
				,"byteOffset" : 19080
				,"byteLength" : 19080
				,"byteStride" : 12
				,"target" : 34962
			},
			{
				"buffer": 3
				,"byteOffset" : 38160
				,"byteLength" : 12720
				,"byteStride" : 8
				,"target" : 34962
			},
			{
				"buffer": 3
				,"byteOffset" : 50880
				,"byteLength" : 13632
				,"target" : 34963
			},
			{
				"buffer": 4
				,"byteOffset" : 0
				,"byteLength" : 19080
				,"byteStride" : 12
				,"target" : 34962
			},
			{
				"buffer": 4
				,"byteOffset" : 19080
				,"byteLength" : 19080
				,"byteStride" : 12
				,"target" : 34962
			},
			{
				"buffer": 4
				,"byteOffset" : 38160
				,"byteLength" : 12720
				,"byteStride" : 8
				,"target" : 34962
			},
			{
				"buffer": 4
				,"byteOffset" : 50880
				,"byteLength" : 13632
				,"target" : 34963
			},
			{
				"buffer": 5
				,"byteOffset" : 0
				,"byteLength" : 960
				,"byteStride" : 12
				,"target" : 34962
			},
			{
				"buffer": 5
				,"byteOffset" : 960
				,"byteLength" : 960
				,"byteStride" : 12
				,"target" : 34962
			},
			{
				"buffer": 5
				,"byteOffset" : 1920
				,"byteLength" : 640
				,"byteStride" : 8
				,"target" : 34962
			},
			{
				"buffer": 5
				,"byteOffset" : 2560
				,"byteLength" : 576
				,"target" : 34963
			},
			{
				"buffer": 6
				,"byteOffset" : 0
				,"byteLength" : 468
				,"byteStride" : 12
				,"target" : 34962
			},
			{
				"buffer": 6
				,"byteOffset" : 468
				,"byteLength" : 468
				,"byteStride" : 12
				,"target" : 34962
			},
			{
				"buffer": 6
				,"byteOffset" : 936
				,"byteLength" : 312
				,"byteStride" : 8
				,"target" : 34962
			},
			{
				"buffer": 6
				,"byteOffset" : 1248
				,"byteLength" : 276
				,"target" : 34963
			},
			{
				"buffer": 7
				,"byteOffset" : 0
				,"byteLength" : 4320
				,"byteStride" : 12
				,"target" : 34962
			},
			{
				"buffer": 7
				,"byteOffset" : 4320
				,"byteLength" : 4320
				,"byteStride" : 12
				,"target" : 34962
			},
			{
				"buffer": 7
				,"byteOffset" : 8640
				,"byteLength" : 2880
				,"byteStride" : 8
				,"target" : 34962
			},
			{
				"buffer": 7
				,"byteOffset" : 11520
				,"byteLength" : 3456
				,"target" : 34963
			},
			{
				"buffer": 8
				,"byteOffset" : 0
				,"byteLength" : 7728
				,"byteStride" : 12
				,"target" : 34962
			},
			{
				"buffer": 8
				,"byteOffset" : 7728
				,"byteLength" : 7728
				,"byteStride" : 12
				,"target" : 34962
			},
			{
				"buffer": 8
				,"byteOffset" : 15456
				,"byteLength" : 5152
				,"byteStride" : 8
				,"target" : 34962
			},
			{
				"buffer": 8
				,"byteOffset" : 20608
				,"byteLength" : 5856
				,"target" : 34963
			},
			{
				"buffer": 9
				,"byteOffset" : 0
				,"byteLength" : 7728
				,"byteStride" : 12
				,"target" : 34962
			},
			{
				"buffer": 9
				,"byteOffset" : 7728
				,"byteLength" : 7728
				,"byteStride" : 12
				,"target" : 34962
			},
			{
				"buffer": 9
				,"byteOffset" : 15456
				,"byteLength" : 5152
				,"byteStride" : 8
				,"target" : 34962
			},
			{
				"buffer": 9
				,"byteOffset" : 20608
				,"byteLength" : 5856
				,"target" : 34963
			}
	],
	"buffers" : [
			{
				"byteLength": 240220
				,"uri" : "camera_0001.bin"
			},
			{
				"byteLength": 240220
				,"uri" : "camera_0002.bin"
			},
			{
				"byteLength": 210368
				,"uri" : "camera_0003.bin"
			},
			{
				"byteLength": 64512
				,"uri" : "camera_0004.bin"
			},
			{
				"byteLength": 64512
				,"uri" : "camera_0005.bin"
			},
			{
				"byteLength": 3136
				,"uri" : "camera_0006.bin"
			},
			{
				"byteLength": 1524
				,"uri" : "camera_0007.bin"
			},
			{
				"byteLength": 14976
				,"uri" : "camera_0008.bin"
			},
			{
				"byteLength": 26464
				,"uri" : "camera_0009.bin"
			},
			{
				"byteLength": 26464
				,"uri" : "camera_0010.bin"
			}
	]
}
